# xmcd CD database file
#
# Track frame offsets:
#	150
#	19412
#	42070
#	61482
#	85415
#	108642
#	135540
#	155555
#	178540
#	204767
#
# Disc length: 2978 seconds
#
# Revision: 0
# Processed by: cddbd v1.5.1PL0 Copyright (c) Steve Scherf et al.
# Submitted via: CDex 1.51
#
DISCID=820ba00a
DTITLE=Peter Nero and Friends - As Time Goes By
DYEAR=1994
DGENRE=Jazz
TTITLE0=Smile
TTITLE1=On the Street Where You Live
TTITLE2=All the Things You Are
TTITLE3=Someone to Watch Over Me
TTITLE4=Stormy Weather
TTITLE5=When I Fall In Love
TTITLE6=As Time Goes By
TTITLE7=My Funny Valentine
TTITLE8=Stardust
TTITLE9=I'll Be Seeing You
EXTD=YEAR: 1994
EXTT0=
EXTT1=
EXTT2=
EXTT3=
EXTT4=
EXTT5=
EXTT6=
EXTT7=
EXTT8=
EXTT9=
PLAYORDER=
